<svg width="64" height="64" viewBox="0 0 64 64" fill="none" xmlns="http://www.w3.org/2000/svg">
<path d="M57.247 24.222C58.22 21.594 58.501 19.088 57.802 16.839C57.48 16.868 57.146 16.883 56.804 16.883C46.562 16.883 28.46 4.006 27.09 2C21.445 10.223 9.61302 16.545 4.26502 23.635C2.10102 26.504 1.01902 28.639 3.17202 31.921L25.721 60.894C26.738 62.271 28.731 62.383 30.15 61.113C30.15 61.113 48.642 37.384 62.001 30.042C60.997 28.081 59.326 26.124 57.247 24.222ZM25.328 54.754L25.234 54.819L25.149 54.893C24.8043 55.2021 24.4981 55.5517 24.237 55.934L4.69902 30.831C3.29202 28.654 3.69102 27.508 5.76202 24.764C8.11102 21.651 11.865 18.629 15.84 15.43C19.972 12.104 24.228 8.68 27.354 4.784C32.514 9.03 46.947 18.405 56.286 18.748C57.406 29.745 34.604 48.284 25.328 54.754Z" fill="#F0F8FF"/>
<path d="M19.993 14.158L45.198 33.908L46.096 33.104L20.649 13.57L19.993 14.158ZM28.207 24.671L17.891 16.039C17.891 16.039 14.301 18.331 9.95302 23.358L19.105 32.82L28.207 24.671ZM5.60602 28.06L25.074 51.921L28.669 48.704L7.91302 24.973C7.91302 24.973 6.10402 25.952 5.60602 28.06ZM27.42 29.428L38.729 39.698L42.322 36.481L30.547 26.629L27.42 29.428ZM21.166 35.027L31.543 46.131L35.135 42.915L24.293 32.228L21.166 35.027ZM27.857 10.756L26.332 15.038L27.288 15.734L32.143 11.387L31.193 10.789L27.848 13.784L29.327 9.61001L28.335 8.98401L23.708 13.126L24.537 13.729L27.857 10.756ZM32.012 19.179L32.938 18.348L30.113 16.34L31.394 15.194L33.903 16.912L34.794 16.113L32.257 14.419L33.315 13.473L36.124 15.29L37.036 14.475L33.152 12.023L28.234 16.426L32.012 19.179ZM35.021 21.371L38.86 19.046L40.117 18.25L39.283 19.328L36.813 22.679L38.006 23.548L45.394 19.749L43.992 18.864L39.941 21.182L38.907 21.808L39.601 20.895L42.002 17.608L40.654 16.758L36.909 19.079L35.914 19.708L36.599 18.837L38.867 15.63L37.603 14.832L33.942 20.585L35.021 21.371ZM48.907 21.705C47.998 21.134 47.149 20.861 46.355 20.877C45.567 20.894 44.921 21.131 44.412 21.587C43.853 22.087 43.665 22.606 43.849 23.144C43.957 23.467 44.301 23.934 44.888 24.552L45.495 25.19C45.857 25.566 46.09 25.874 46.192 26.11C46.292 26.349 46.243 26.558 46.046 26.734C45.709 27.035 45.27 27.092 44.731 26.908C44.3959 26.7809 44.0801 26.6076 43.793 26.393C43.223 25.987 42.946 25.596 42.953 25.219C42.957 25.013 43.07 24.777 43.291 24.511L41.98 23.597C41.389 24.126 41.165 24.716 41.313 25.371C41.462 26.032 41.969 26.684 42.849 27.326C43.726 27.969 44.599 28.313 45.457 28.351C46.324 28.388 47.038 28.16 47.588 27.665C48.128 27.183 48.32 26.665 48.166 26.114C48.068 25.761 47.793 25.35 47.349 24.882L46.354 23.832C45.975 23.436 45.749 23.161 45.672 23.004C45.552 22.765 45.595 22.554 45.802 22.37C46.027 22.168 46.315 22.086 46.667 22.121C47.024 22.156 47.396 22.299 47.785 22.549C48.138 22.777 48.387 23.013 48.526 23.257C48.741 23.625 48.681 23.98 48.351 24.317L49.828 25.29C50.442 24.698 50.634 24.071 50.405 23.412C50.181 22.759 49.68 22.189 48.907 21.705Z" fill="#F0F8FF"/>
</svg>
