<svg width="14" height="18" viewBox="0 0 14 18" fill="none" xmlns="http://www.w3.org/2000/svg">
<path d="M0 16C0 16.5304 0.210714 17.0391 0.585786 17.4142C0.960859 17.7893 1.46957 18 2 18H12C12.5304 18 13.0391 17.7893 13.4142 17.4142C13.7893 17.0391 14 16.5304 14 16V2C14 1.46957 13.7893 0.960859 13.4142 0.585786C13.0391 0.210714 12.5304 0 12 0H2C1.46957 0 0.960859 0.210714 0.585786 0.585786C0.210714 0.960859 0 1.46957 0 2V16ZM12 4H7V3H12V4ZM12 6H7V5H12V6ZM12 8H7V7H12V8ZM2 13H12V14H2V13ZM2 11H12V12H2V11ZM2 9H12V10H2V9ZM2 3H6V8H2V3Z" fill="#F0F8FF"/>
</svg>
